<svg width="261" height="261" viewBox="0 0 261 261" fill="none" xmlns="http://www.w3.org/2000/svg">
<g clip-path="url(#clip0_58:35)">
<path d="M239.806 206.224C225.827 191.077 208.862 178.99 189.981 170.722C171.1 162.455 150.711 158.187 130.1 158.187C109.488 158.187 89.0993 162.455 70.2182 170.722C51.3371 178.99 34.3725 191.077 20.393 206.224C18.2347 208.61 17.0273 211.706 17 214.924V267.124C17.0457 270.554 18.4408 273.829 20.8832 276.239C23.3256 278.649 26.6188 280 30.0499 280H230.149C233.61 280 236.929 278.625 239.377 276.177C241.824 273.73 243.199 270.411 243.199 266.95V214.75C243.13 211.592 241.925 208.566 239.806 206.224V206.224Z" fill="#E2E2E2"/>
<path d="M130.1 140.799C163.734 140.799 190.999 113.534 190.999 79.8997C190.999 46.2657 163.734 19 130.1 19C96.4655 19 69.1998 46.2657 69.1998 79.8997C69.1998 113.534 96.4655 140.799 130.1 140.799Z" fill="#E2E2E2"/>
</g>
<defs>
<clipPath id="clip0_58:35">
<rect width="261" height="261" rx="130.5" fill="white"/>
</clipPath>
</defs>
</svg>
