<svg width="261" height="261" viewBox="0 0 261 261" fill="none" xmlns="http://www.w3.org/2000/svg">
<rect width="261" height="261" rx="30" fill="#EDF4F8"/>
<path d="M221.923 177.771C210.273 165.148 196.136 155.075 180.401 148.186C164.667 141.296 147.677 137.739 130.5 137.739C113.323 137.739 96.333 141.296 80.5987 148.186C64.8644 155.075 50.7272 165.148 39.0775 177.771C37.2789 179.759 36.2728 182.339 36.25 185.021V228.521C36.2881 231.38 37.4507 234.109 39.486 236.117C41.5214 238.125 44.2657 239.251 47.125 239.251H213.875C216.759 239.251 219.525 238.105 221.565 236.065C223.604 234.026 224.75 231.26 224.75 228.376V184.876C224.692 182.244 223.688 179.722 221.923 177.771V177.771Z" fill="#4E587B"/>
<path d="M130.5 123.25C158.528 123.25 181.25 100.528 181.25 72.5C181.25 44.4715 158.528 21.75 130.5 21.75C102.472 21.75 79.75 44.4715 79.75 72.5C79.75 100.528 102.472 123.25 130.5 123.25Z" fill="#4E587B"/>
</svg>
